<svg id="Layer_1" data-name="Layer 1" xmlns="http://www.w3.org/2000/svg" viewBox="0 0 96 96"><defs><style>.cls-1,.cls-2{fill:none;stroke:#fff;stroke-miterlimit:10;stroke-width:5px;}.cls-2{stroke-linecap:round;}</style></defs><title>ic_filter</title><path class="cls-1" d="M11,6H85a4.67,4.67,0,0,1,3.64,7.58L58.36,51.39a4.68,4.68,0,0,0-1,2.91v24a4.68,4.68,0,0,1-1.86,3.74l-9.34,7a4.67,4.67,0,0,1-6.53-.94,4.62,4.62,0,0,1-.93-2.8v-31a4.71,4.71,0,0,0-1-2.91L7.4,13.58A4.66,4.66,0,0,1,11,6Z"/><line class="cls-2" x1="14.93" y1="23" x2="60.5" y2="23"/></svg>