<svg id="Layer_1" data-name="Layer 1" xmlns="http://www.w3.org/2000/svg" xmlns:xlink="http://www.w3.org/1999/xlink" viewBox="0 0 96 96"><defs><style>.cls-1,.cls-12{opacity:0.2;}.cls-2{fill:url(#radial-gradient);}.cls-11,.cls-3{fill:#fff;}.cls-10,.cls-3{opacity:0.3;}.cls-4{fill:#158972;opacity:0.5;}.cls-5{fill:url(#linear-gradient);}.cls-6{fill:url(#linear-gradient-2);}.cls-7{fill:url(#linear-gradient-3);}.cls-8{fill:url(#linear-gradient-4);}.cls-9{fill:#b23232;}</style><radialGradient id="radial-gradient" cx="48.76" cy="53.36" r="41.83" gradientTransform="translate(1.03 -11.75) scale(0.96 1.03)" gradientUnits="userSpaceOnUse"><stop offset="0" stop-color="#6cffc9"/><stop offset="0.2" stop-color="#68fbc6"/><stop offset="0.41" stop-color="#5defbd"/><stop offset="0.62" stop-color="#4bdaaf"/><stop offset="0.83" stop-color="#31be9a"/><stop offset="1" stop-color="#16a085"/></radialGradient><linearGradient id="linear-gradient" x1="32.61" y1="57.07" x2="65.9" y2="24.32" gradientUnits="userSpaceOnUse"><stop offset="0" stop-color="#ecf0f1"/><stop offset="0.17" stop-color="#e7eced"/><stop offset="0.36" stop-color="#dadee1"/><stop offset="0.57" stop-color="#c3c9cc"/><stop offset="0.61" stop-color="#bdc3c7"/></linearGradient><linearGradient id="linear-gradient-2" x1="-144.07" y1="37.34" x2="-113.49" y2="12.82" gradientTransform="translate(153.41 18.52) rotate(2.32)" xlink:href="#linear-gradient"/><linearGradient id="linear-gradient-3" x1="-496.84" y1="42.9" x2="-485.99" y2="42.9" gradientTransform="translate(532.62 76.35) rotate(8.05)" gradientUnits="userSpaceOnUse"><stop offset="0" stop-color="#313131"/><stop offset="1" stop-color="#414141"/></linearGradient><linearGradient id="linear-gradient-4" x1="-521.62" y1="43.62" x2="-512.66" y2="43.62" xlink:href="#linear-gradient-3"/></defs><title>ic_gene</title><ellipse id="shadow" class="cls-1" cx="48" cy="76.37" rx="44" ry="13.69"/><path class="cls-2" d="M7.78,29.6c-4.09,7.15-6,18.23-3.95,26.89,2,8.4,6.49,14.85,13.37,18.65A42.81,42.81,0,0,0,38.69,81c8.43-.1,17.87-1.65,24.44-6.62,5.69-4.31,10.54-9.86,10.57-19,.06-4.33-.27-11,3.77-13.54,7.81-4.88,14.68,3.08,15.48-.14,1-22.75-24.85-36.63-45.71-35.79C32.37,6.48,15.69,15.79,7.78,29.6Z"/><ellipse class="cls-3" cx="60.8" cy="18.03" rx="3.9" ry="7.3" transform="translate(30.47 73.72) rotate(-77.94)"/><path class="cls-3" d="M47.15,14.88a2.73,2.73,0,1,1-1.84-3.39A2.72,2.72,0,0,1,47.15,14.88Z"/><circle class="cls-3" cx="65.87" cy="57.76" r="3.34"/><path class="cls-3" d="M64.06,33a1.67,1.67,0,1,1-1.13-2.07A1.66,1.66,0,0,1,64.06,33Z"/><circle class="cls-4" cx="59.62" cy="42.56" r="2.31" transform="translate(4.5 90.81) rotate(-76.72)"/><circle class="cls-4" cx="71.41" cy="36.41" r="2.31"/><circle class="cls-4" cx="67.37" cy="45.55" r="1.48"/><circle class="cls-4" cx="68.8" cy="24.48" r="1.48" transform="translate(33.62 88.47) rotate(-80.78)"/><circle class="cls-4" cx="83.16" cy="32.29" r="1.48"/><path class="cls-5" d="M52.1,51.37c-.22,5.9-5.7,8.77-10.22,9s-7.1-1.43-8.51-3.22c-1.84-2.33-2-5.86-1.47-9.5,1.08-7.16,3.59-12.8,9.14-13C47,34.43,52.48,41.29,52.1,51.37Z"/><path class="cls-6" d="M5.81,45c-1,4.84,1.72,8,5.38,9.1s7.36.39,8.86-.79c2-1.55,2.81-4.39,3.07-7.46.51-6-.44-11.11-5-12.34C13.31,32.21,7.47,36.74,5.81,45Z"/><circle class="cls-7" cx="40.04" cy="50.05" r="5.43"/><circle class="cls-8" cx="14.47" cy="47.16" r="4.48"/><circle class="cls-3" cx="75.93" cy="25.62" r="2.5"/><circle class="cls-4" cx="48.7" cy="24.13" r="2.48" transform="translate(14.93 66.71) rotate(-77.94)"/><circle class="cls-4" cx="54.5" cy="32.65" r="2.48"/><path class="cls-9" d="M16.22,58.34s7.53,3.25,13,2.54-6.11,9-6.11,9-3,2.22-4.68,0S16.22,58.34,16.22,58.34Z"/><g class="cls-10"><path class="cls-11" d="M47.24,5.89c-14,.56-29.54,8.8-37.93,21.26C18.06,16.58,32.05,9.73,44.74,9.23c19.94-.8,44.43,11.86,45.67,32.86,1.37.5,2.28.64,2.54-.41C93.93,18.93,68.1,5.05,47.24,5.89Z"/></g><g class="cls-12"><path d="M40.47,77.21a46.06,46.06,0,0,1-23.15-6.29c-7.19-4-12-10.62-14.2-19.27a31.34,31.34,0,0,0,.71,4.84c2,8.4,6.49,14.85,13.37,18.65A42.81,42.81,0,0,0,38.69,81c8.43-.1,17.87-1.65,24.44-6.62a30.34,30.34,0,0,0,6.94-7c-1,1-2.13,1.86-3.26,2.72C59.73,75.44,49.55,77.11,40.47,77.21Z"/></g><path class="cls-11" d="M17.26,66.52a18,18,0,0,1,4.41-6.38,39.4,39.4,0,0,1-5.45-1.8A65.63,65.63,0,0,0,17.26,66.52Z"/><path d="M38.7,82a43.66,43.66,0,0,1-22-6c-7-3.89-11.85-10.57-13.88-19.31A41.54,41.54,0,0,1,6.89,29.1h0C14.69,15.47,31.26,5.5,47.2,4.87c13.71-.56,28.4,5,37.46,14.05,6.46,6.48,9.68,14.36,9.31,22.8l0,.2a1.94,1.94,0,0,1-1,1.35c-1,.52-2.23,0-3.92-.61-2.86-1.11-6.77-2.62-11,0-3.22,2-3.25,7.52-3.27,11.54v1.14c0,10.21-5.89,15.95-11,19.8C56.5,80.66,46.12,81.91,38.7,82Zm-30-51.89A39.28,39.28,0,0,0,4.83,56.26c1.89,8.16,6.34,14.38,12.87,18a41.75,41.75,0,0,0,21,5.72c7.1-.09,17-1.27,23.82-6.42C67.23,70,72.65,64.68,72.68,55.35V54.22c0-4.5.06-10.66,4.24-13.27,5.12-3.19,9.95-1.31,12.84-.19a10.39,10.39,0,0,0,2.17.69c.28-7.78-2.73-15.07-8.73-21.09-8.67-8.7-22.79-14-35.93-13.45C32,7.52,16.13,17.06,8.67,30.11Zm83.26,11.4v0h0Z"/></svg>