<svg id="Layer_1" data-name="Layer 1" xmlns="http://www.w3.org/2000/svg" viewBox="0 0 96 96"><defs><style>.cls-1{fill:none;stroke:#fff;stroke-linecap:round;stroke-miterlimit:10;stroke-width:5px;}</style></defs><title>ic_inventory</title><polygon class="cls-1" points="6.43 54 6.43 78 27.21 90 48 78 48 54 27.21 42 6.43 54"/><polygon class="cls-1" points="48 54 48 78 68.78 90 89.57 78 89.57 54 68.78 42 48 54"/><polygon class="cls-1" points="27.21 18 27.21 42 48 54 68.78 42 68.78 18 48 6 27.21 18"/><line class="cls-1" x1="27.22" y1="65.97" x2="27.15" y2="78.09"/><line class="cls-1" x1="48" y1="29.97" x2="48" y2="42.04"/><polyline class="cls-1" points="6.43 53.97 27.21 65.97 48 53.97"/><polyline class="cls-1" points="48 53.95 68.78 65.95 80.51 59"/><polyline class="cls-1" points="27.21 17.95 48 29.95 68.78 17.95"/></svg>