<svg id="Layer_1" data-name="Layer 1" xmlns="http://www.w3.org/2000/svg" viewBox="0 0 480 315"><defs><style>.cls-1{fill:#282e48;}.cls-2{fill:#202341;}.cls-3{fill:#00173d;}.cls-4{fill:#373c54;}.cls-5{fill:#f2f2f2;stroke:#202341;stroke-miterlimit:10;stroke-width:3px;}.cls-6{fill:#ff592b;}</style></defs><title>ic_list_empty</title><path class="cls-1" d="M355.52,205.54,321,180.27a75.91,75.91,0,1,0-10.43,14.26l34.53,25.27ZM220.42,189.9A58.32,58.32,0,0,1,245.93,85.2a59,59,0,0,1,9-.7,58.32,58.32,0,1,1-34.56,105.4Z"/><path class="cls-2" d="M428.2,252.16l-69.55-50.9A14.14,14.14,0,1,0,342,224.08L411.51,275a14.14,14.14,0,1,0,16.69-22.82Z"/><polygon class="cls-3" points="137.96 277.97 133.72 235.46 168.42 210.53 172.66 253.05 137.96 277.97"/><polygon class="cls-4" points="172.66 253.05 168.42 210.53 207.35 228.12 211.59 270.63 172.66 253.05"/><polygon class="cls-4" points="172.66 253.05 168.42 210.53 133.72 235.46 137.96 277.97 176.89 295.56 211.59 270.63 172.66 253.05"/><polygon class="cls-1" points="176.89 295.56 137.96 277.97 172.66 253.05 211.59 270.63 176.89 295.56"/><polygon class="cls-3" points="254.86 142.83 217 120.97 217 164.69 254.86 186.55 292.72 164.69 292.72 120.97 254.86 142.83"/><polygon class="cls-4" points="254.86 186.55 217 164.69 217 120.97 254.86 142.83 254.86 186.55"/><polygon class="cls-1" points="292.72 164.69 254.86 186.55 254.86 142.83 292.72 120.97 292.72 164.69"/><polygon class="cls-4" points="254.86 142.83 217 120.97 254.86 99.11 292.72 120.97 254.86 142.83"/><polygon class="cls-3" points="412 82.95 375 61.59 375 104.31 412 125.67 449 104.31 449 61.59 412 82.95"/><polygon class="cls-4" points="412 125.67 375 104.31 375 61.59 412 82.95 412 125.67"/><polygon class="cls-1" points="449 104.31 412 125.67 412 82.95 449 61.59 449 104.31"/><polygon class="cls-4" points="412 82.95 375 61.59 412 40.23 449 61.59 412 82.95"/><polygon class="cls-3" points="68.93 79.31 64.7 36.8 30 61.72 34.24 104.24 73.17 121.82 107.87 96.9 68.93 79.31"/><polygon class="cls-4" points="34.24 104.24 30 61.72 64.7 36.8 68.93 79.31 34.24 104.24"/><polygon class="cls-1" points="73.17 121.82 34.24 104.24 68.93 79.31 107.87 96.9 73.17 121.82"/><polygon class="cls-4" points="68.93 79.31 64.7 36.8 103.63 54.39 107.87 96.9 68.93 79.31"/><path class="cls-5" d="M292.72,38c-20.71,0-37.5,14.15-37.5,31.6,0,10.1,5.64,19.08,14.39,24.87-1,5.33-2.18,11.25-2.5,12.74L277,98.28a43.39,43.39,0,0,0,15.73,2.91c20.71,0,37.5-14.14,37.5-31.59S313.43,38,292.72,38Z"/><path class="cls-6" d="M288.42,66.5c.34,2.2.67,4.88,1,8,.18,1.67.35,2.9.52,3.74l.06.35,1.09,1,3.36-1.86,2.92-21A52.52,52.52,0,0,0,298,50c0-.3,0-.76,0-1.37l0-1-4.27,0-4.68,2c-.56.25-1.14.55-1.72.88l-.49.28,0,.55c0,.57-.06,1-.06,1.3,0,.77.12,2.19.36,4.32C287.13,57.7,287.58,60.84,288.42,66.5Z"/><path class="cls-6" d="M292.25,80.71a5.68,5.68,0,0,0,0,11.35,5.43,5.43,0,0,0,4-1.67,5.67,5.67,0,0,0,0-8A5.46,5.46,0,0,0,292.25,80.71Z"/></svg>