<svg id="Layer_1" data-name="Layer 1" xmlns="http://www.w3.org/2000/svg" viewBox="0 0 96 96"><defs><style>.cls-1{opacity:0.2;}.cls-2{fill:#592b06;}.cls-3{fill:#6d390a;}.cls-4{fill:#471f04;}.cls-5{fill:#915922;}.cls-6{fill:#aa692e;}.cls-7{fill:#7f491c;}.cls-8{fill:#935527;}.cls-9{fill:#0ebae2;}.cls-10{fill:#43d7ef;}.cls-11{fill:#0a8ec1;}.cls-12{fill:#845e42;}.cls-13{fill:#7a5739;}.cls-14{fill:#528402;}.cls-15{fill:#80b708;}.cls-16{fill:#9bc90e;}.cls-17{fill:#93b711;}.cls-18{fill:none;stroke:#000;stroke-miterlimit:10;stroke-width:2px;}</style></defs><title>ic_mining_tool</title><path class="cls-1" d="M79.54,55.83c-5.07-5.44-11.76-5.55-15.9-9.18-2.06-1.8-11.34-6.31-13.82-7.95-5.64,3.38-9.77,3.33-12.23,6.61S30.3,48.92,26.9,50.88c.18.47-8.83,5.86-13,8.63C10.3,61.91,4,65.41,4,65.41c4.74,5.16,37.6,21.85,37.6,21.85,4.45,2.57,6.57,5.16,8.49,4.88s7-3.35,8.65-4.38c3.23-2,21.8-12,26.21-14.67,3.51-2.1,7-6.68,11-7.46-1.36-1.45-4.89-4.13-13.66-8.36l-5.48,1A26.63,26.63,0,0,0,79.54,55.83Z"/><path class="cls-2" d="M24.67,17.42A11.3,11.3,0,0,1,24.52,19l-.08,0c.26.14.9-.17,1.23-.18s1,.2.88-.37c-.16-1-1.14-1.56-1.63-2.36C24.86,16.53,24.72,17,24.67,17.42Z"/><path class="cls-2" d="M77.36,25.12h.16a1,1,0,0,0-.16-.12Z"/><path class="cls-2" d="M75.72,24.83c.59,0,1.14-.14,1.64.17,0-1.31.22-2.59.2-3.85-.35-.1-1.24.64-1.58.81a5.71,5.71,0,0,0-1.85,1.15c-.47.52-.73,1,0,1.36A3.55,3.55,0,0,0,75.72,24.83Z"/><path class="cls-3" d="M94,30.93l-1.14-.4c-3-.86-6.55-.87-9.77-1.05A40.69,40.69,0,0,0,62.76,33.4c-6.68,3.25-14.23,9.22-16.67,16.67-1.71,5.23-3,11.29-2.16,16.83.87,5.86,4,11.66,3.89,17.59,3.25-.72,5.78-4.67,9.17-5.81,0,0,2.6,1.73,6-1.2,4.54-4,9.14-8.53,14.54-10,6-1.67,8.39-8,11.56-10,2.58-6.05-.71-7.32,1.79-11.83C94,40,92.29,35.75,94,30.93Z"/><path class="cls-2" d="M83.74,53.65A77.29,77.29,0,0,0,82.6,64.4c2.64-2.51,4.4-5.67,6.47-6.94,2.58-6.05-.71-7.32,1.79-11.83C94,40,92.29,35.75,94,30.93l-1.14-.4-.27-.07c-1.9,1.08-3.72,2.25-5.52,3.49a12.45,12.45,0,0,1,3.75.76,2,2,0,0,1,1,3C90.46,43.74,85.06,47.62,83.74,53.65Z"/><path class="cls-2" d="M47.4,55.58H47c-.27,6.94-.37,13.9-.58,20.84a28.16,28.16,0,0,1,1.37,8.06A10.81,10.81,0,0,0,52.1,82c0-.44-.05-.88-.08-1.32a23.41,23.41,0,0,0-.89-6.17c-.57-1.64-1.61-3.24-1.91-5-1-5.79,1.13-10.5,4.56-14.74C51.7,55.13,49.57,55.28,47.4,55.58Z"/><path class="cls-2" d="M70.75,70.92a27.49,27.49,0,0,1,3.73-2.29c.1-1.49.22-3,.41-4.45a46.78,46.78,0,0,1,2.74-9.87c1.05-3,.32-6.23,1.34-9.2.8-2.34,1.89-4.45,2.49-6.76a9.43,9.43,0,0,1-4.54,1.29c-1.74,0-3.52-.27-5.21.32.11,0-4.94,1.19-3.69,1.76a13.12,13.12,0,0,1,2,.53c.15.06,4-.09,4-.09-2.85,6.77-2.23,16.72-2.78,23.9C71.13,67.69,71,69.32,70.75,70.92Z"/><path class="cls-2" d="M59.28,62.12c1.45-3.83,1-7.65,3.67-11.43.6-.86,4.71-5.62,4.87-6.61-2.95,1.07-11.55,6.82-13.2,9.59a77.73,77.73,0,0,1,.52,9.27c-.08,3.12-.51,6.19-.16,9.31.27,2.3.66,4.6.94,6.9a6.79,6.79,0,0,1,.87-.39c-.17-2.44.45-4.82.85-7.27C58.16,68.25,58.09,65.24,59.28,62.12Z"/><path class="cls-4" d="M62.14,48.1l.06-.45a15,15,0,0,0-7.58,6,77.73,77.73,0,0,1,.52,9.27c-.08,3.12-.51,6.19-.16,9.31.27,2.3.66,4.6.94,6.9.25-.13.51-.24.77-.35-.24-5.76-.31-11.54-.1-17.31C56.79,56,59.37,52.58,62.14,48.1Z"/><path class="cls-5" d="M47.05,50.5C44.59,43.75,34.5,37.7,28.3,34.8S13.71,31.9,7,31.58a17.42,17.42,0,0,1-4.87-.7c0,5.4.19,11.18,2.71,15.79,1,1.9,2.14,9.12,4.32,13.22,1.47,2.78,3,2.15,5.3,3.1,3.67,1.48,5.5,6.69,11.71,10.1,2.21,1.22,3.6,4.33,8.21,5.87a13.71,13.71,0,0,0,5.86.29c2.68,1.08,2.77,3.58,7.58,5.24.15-5.37-.32-10.9-.32-16.62C47.5,62.7,48.79,55.28,47.05,50.5Z"/><path class="cls-3" d="M22.23,70.26a20.25,20.25,0,0,0,3.94,2.83c1.33.74,2.37,2.16,4,3.5a61.92,61.92,0,0,1-3-8.85c-1-3.95-1.32-8.13-2.4-12.06a.5.5,0,0,1,0,.12,18.72,18.72,0,0,1,.55,6.87C25.31,66,24.61,69.09,22.23,70.26Z"/><path class="cls-6" d="M2.74,31.06l-.61-.18c0,5.4.19,11.18,2.71,15.79,1,1.9,2.14,9.12,4.32,13.22a4.08,4.08,0,0,0,2.73,2.37C9.7,57.69,5.7,50.69,8.12,46.07a24.77,24.77,0,0,1-3.48-3.49,19,19,0,0,1-1.18-6.06A28.51,28.51,0,0,1,3.6,31.9,8.53,8.53,0,0,1,2.74,31.06Z"/><path class="cls-6" d="M18.85,66.73c.11-2.4.28-4.8.29-7.22,0-5.49-2.37-10.81-.35-16.12A9.8,9.8,0,0,1,17.63,42c-1.19-.68-2.24-1.59-3.47-2.14A21.9,21.9,0,0,1,14,42.16l0,.25a53.46,53.46,0,0,1,2.16,9.46,1.83,1.83,0,0,1,.16.5c.15.77.29,1.53.42,2.29a2,2,0,0,1,.3,1,77.46,77.46,0,0,1,.31,9.5C17.85,65.62,18.34,66.15,18.85,66.73Z"/><path class="cls-7" d="M16.38,36.12c-1.73-.29-6-.84-6.35-.82a55.16,55.16,0,0,0,1.4,9.23c.87,3.18,2.51,6,3.54,9.09a61.24,61.24,0,0,1,2.4,11.5l.9,1A98.81,98.81,0,0,0,16.46,47.4c-.76-3.51-1.1-4.66-1.39-6.89C15.37,40.09,16.68,36.18,16.38,36.12Z"/><path class="cls-2" d="M16.38,36.12C14.65,35.83,5,32.8,4.64,32.82c1.29,2.22,4.64,3.9,5.85,4.24,3.1,1.09,3.08,3.14,3.65,5.56.76,3.19,1.46,6.42,2.11,9.62a65.18,65.18,0,0,1,1.69,13.49l.33.35A98.81,98.81,0,0,0,16.46,47.4a70.29,70.29,0,0,1-1.32-7C15.43,40,16.68,36.18,16.38,36.12Z"/><path class="cls-7" d="M45.26,48.84c-3.17.09-13-1.39-12.25.61,2.22,3.24,4.53,8,6,17.09.69,4.27.74,8.42,1.23,12.71.18.09.68.34.84.44.23-2.28.53-4.56.73-6.88.54-6.51-1.62-13.8-2.21-20.26C39.6,52.55,44.23,50.16,45.26,48.84Z"/><path class="cls-2" d="M45.26,48.84C42.09,48.93,27,43,24,44.08l3.64,2.6c3.24,1.25,8.4,5.77,8.39,5.91.74.46,3.5,6.91,4,9.55a48.14,48.14,0,0,1,.58,17.3l.43.25c.23-2.28.53-4.56.73-6.88.54-6.51-1.62-13.8-2.21-20.26C39.6,52.55,44.23,50.16,45.26,48.84Z"/><path class="cls-7" d="M6.79,49.7h0l0,.05Z"/><path class="cls-8" d="M6.79,49.7l.12.16a.72.72,0,0,1,.37.07"/><path class="cls-8" d="M14.21,58.2a40.54,40.54,0,0,0,2.42,6.1c.06.14.13.29.19.45"/><path class="cls-9" d="M77.54,21.13c-5.07-5.44-11.76-5.55-15.9-9.18C59.58,10.14,50.3,5.63,47.82,4c-5.64,3.38-9.77,3.33-12.23,6.6S28.3,14.22,24.9,16.18c.18.46.62,1.57.84,2.06-4.31-.75-9.67,3.8-13.82,6.56C8.3,27.21,2,30.7,2,30.7c4.74,5.17,8.81,6.06,13.62,6.78.34.9-.95,2.3-.29,3.77,2,4.56,17.16,6.52,20.77,10.64.87,1,5.39-1.29,5.39-1.29,0,.82-1.89,1.95-1.89,1.95,4.45,2.57,6.57,5.17,8.49,4.89s7-3.35,8.65-4.38c3.23-2,4.26-4.12,7.72-5.43C68.7,46,70.94,46,74,42.16a41.14,41.14,0,0,0-5.11-.53c4.41-2,9.61-.61,14-3.25,3.51-2.09,7-6.67,11-7.45-1.36-1.45-4.89-4.13-13.66-8.36l-5.48,1A27.9,27.9,0,0,0,77.54,21.13Z"/><path class="cls-10" d="M26,46.41c-1-.13-1.91-.28-2.86-.48l-.31,0c1.23.46,2.52.91,3.79,1.35l-.2-.12A.86.86,0,0,1,26,46.41Z"/><path class="cls-11" d="M59.21,50.39c-1.62,1.59-9,5.82-11.21,6.23-1.64.3-2.24-1.61-6.59-3.8-1-.51,1.23-2.57,1.38-3a18.69,18.69,0,0,0-4.54,1.33,3,3,0,0,1-2.48-.22c-3.7-3.65-13.63-5.67-16.27-6.8-1.46-.63-3.6-1.95-3.8-3.63a6.5,6.5,0,0,1,.73-2.78c.45-1.38-1.88-1.1-2.56-1.24C11.32,35.88,4.54,33.69,2,30.7H2c4.74,5.17,8.81,6.06,13.62,6.78.34.9-.95,2.3-.29,3.77,2,4.56,17.16,6.52,20.77,10.64.87,1,5.39-1.29,5.39-1.29,0,.82-1.89,1.95-1.89,1.95,4.45,2.57,6.57,5.17,8.49,4.89s7-3.35,8.65-4.38c3.23-2,4.26-4.12,7.72-5.43C68.7,46,70.94,46,74,42.16a41.14,41.14,0,0,0-5.11-.53c4.41-2,9.61-.61,14-3.25,2.81-1.67,5.64-5,8.71-6.58-2.17.49-4.14,2.44-5.94,3.73-2.58,1.83-4.63,3.44-7.86,3.88-2,.28-7.57.93-8.51,1.5s-1.62,1-.67,1a28.27,28.27,0,0,1,4.39.71c-4.31,3.8-8.95,3.59-10.24,4.4A22,22,0,0,0,59.21,50.39Z"/><path class="cls-12" d="M53.47,51.2a.19.19,0,0,0,0-.08l-.21.23A.94.94,0,0,0,53.47,51.2Z"/><path class="cls-13" d="M52.08,46.8l-.12.07.09,0Z"/><path class="cls-14" d="M78,21.18c-5.08-5.46-11.8-5.57-16-9.21-2.06-1.81-11.37-6.33-13.85-8-5.66,3.39-9.81,3.33-12.27,6.62s-7.32,3.63-10.73,5.59c.19.47-.61,1.66-.39,2.15-4.32-.75-8.46,3.73-12.62,6.5-2.82,1.87-7.23,4.39-9.08,5.43,2.84,2.43,8.85,3,12.6,3.49,21.1,2.93-4.36,4.67,13,10.27,8.16,2.64,24.73,5.75,30.14,2.66,6.84-3.9,0-4.74,4.76-6.8,7.86-3.4,13.19-.8,18.73-4.93,7-5.25-2.14-6.92,4.48-8.87-1.07-.55-4.7-2.87-6-3.49l-5.5,1A28.12,28.12,0,0,0,78,21.18Z"/><path class="cls-15" d="M78,21.18c-5.08-5.46-11.8-5.57-16-9.21-2.06-1.81-11.37-6.33-13.85-8-5.66,3.39-9.81,3.33-12.27,6.62s-7.32,3.63-10.73,5.59c.19.47-.61,1.66-.39,2.15-4.32-.75-8.46,3.73-12.62,6.5C9.32,26.73,6.27,28,4.42,29c2.84,2.43,12.33,2.3,16.09,2.83,21.09,2.92-4.36,4.67,13,10.27,8.15,2.63,17.94,3.81,23.35.72,6.84-3.9,0-4.75,4.77-6.81,7.85-3.39,13.18-.79,18.73-4.92,7-5.26-2.68-4.78,3.94-6.73-1.07-.56-2.23-1.14-3.51-1.76l-5.5,1A28.12,28.12,0,0,0,78,21.18Z"/><path class="cls-16" d="M78,20.3c-.76-.82-1.63-.64-2.46-1.25-4.65-3.44-10-4-13.56-7.08-2.06-1.81-11.37-6.33-13.85-8l-.9.51c2.07,3.14,6.68,5.35,7.35,9.22.57,3.24-1.24,5.38-4.16,6.5a60,60,0,0,1-13.09,3.24c-2.42.33-5.25-.38-7.57.38-4.42,1.45-13.25,5.24-11.28,5.74s8.23,2.48,10.19,2.48c10.25.83,15.24-2.9,19.35-1.73,8.16,2.32,13.73.4,18.81-1.11,2.33-.7,10.1,1.11,13.14-1.79,1.6-1.53.58-3.33.77-4.82A34.8,34.8,0,0,1,78,20.3Z"/><path class="cls-16" d="M46.15,7.81c-.47.11-.07.29-.25.55l-.78-.52c-4,1.85-7.48,4.17-9.54,8.23,1.65.18,3.25-.66,4.85-.69,0,.37.11.85.08,1.21a9.49,9.49,0,0,0,6.58-.21,36,36,0,0,1-3-2.54A30.89,30.89,0,0,1,49,13.23a12.13,12.13,0,0,0-1.24-2C51.21,10.55,47.3,8.36,46.15,7.81Z"/><path class="cls-17" d="M59.43,12.44a.63.63,0,0,1,.24-.09c-.07-.17-.14-.35-.24-.54Z"/><path class="cls-15" d="M57.58,18.1c-.73,2.31,0,4.12-2.51,5.42A28.34,28.34,0,0,1,49.62,26c-2,.59-11.26,1.49-11,2.32.89,2.43,7.81.48,9.77.39,3.34-.16,7.07,1.32,10,0,1.94-.87,2.46-1.72,4.76-1.83,2-.08,3.92-.07,5.9-.25,1.68-.15,3.82-.3,4.37-2.08.49-1.55-.92-3,.6-4.33a55.46,55.46,0,0,1-8.53-4.45c-1.4-.9-4.52-3.62-5.8-3.41C60.48,14.61,58.32,15.76,57.58,18.1Z"/><path class="cls-18" d="M92.4,41.86c.44-1.09.28-7.21,1.6-10.93-1.15-1.23-9.8-6.53-9.73-6.55-1.07-.56-2.23-1.14-3.51-1.76l-.49,0L77.62,20.1c-.42-.15-.83-.28-1.22-.39C71.57,15.66,65.74,15.25,62,12c-2.06-1.81-14-8.13-14-8.13S37.77,8.16,35.59,10.6c-2.66,3-7.17,3.6-10.55,5.5a10.16,10.16,0,0,0-.37,1.32c0,.24,0,.49,0,.74-2.08,0-4.34,1.1-6.56,2.46a3.12,3.12,0,0,0-1.18.75c-1.75,1.15-3.44,2.42-5,3.43C8.3,27.21,2,30.7,2,30.7s.41,11.53,2.84,16c1,1.87,2.11,8.88,4.21,13a5.53,5.53,0,0,0,.44.77c.25.36.53.7.55.72h0c1.2,1.28,2.51,1.06,4.34,1.78A5,5,0,0,0,17,65.52a.59.59,0,0,1,.21,0h0a3.42,3.42,0,0,0,.71.17l0,0,.17.17.66.73a26.24,26.24,0,0,0,7.38,6.43l.45.28.56.44c1.73,1.45,3.32,3.85,7.2,5.15a13.71,13.71,0,0,0,5.86.29c.17.08.59.29.78.41h0a9.07,9.07,0,0,1,1.75,1.53,11.23,11.23,0,0,0,5,3.3c.85-.38,3.42-1.84,3.5-1.91h0a31.76,31.76,0,0,1,4.59-3.44h0c.25-.13.51-.24.77-.35h0l.1,0h0l.2-.07s2.5,1.66,5.78-1h0l1.16-1c.94-.83,1.88-1.66,2.84-2.49h0l1-.86h0c1-.82,2-1.62,3-2.35h0l.46-.33.47-.31h0a22.8,22.8,0,0,1,2.8-1.65h0a17.81,17.81,0,0,1,3-1.19C82.83,66,85.32,60.76,88,58.27l0,0,.1-.09a.46.46,0,0,0,.07-.07l.09-.07.16-.13,0,0,.13-.1.06,0,.12-.09.06,0,.17-.11c2.09-4.9.33-6.67.91-9.56,0,0,.21-.76.22-.81s.44-1.05.48-1.12l.34-.63A25.25,25.25,0,0,0,92.4,41.86Z"/></svg>