<svg id="Layer_1" data-name="Layer 1" xmlns="http://www.w3.org/2000/svg" viewBox="0 0 96 96"><defs><style>.cls-1{fill:none;stroke:#fff;stroke-linecap:round;stroke-miterlimit:10;stroke-width:5px;}</style></defs><title>ic_marketplace</title><path class="cls-1" d="M80.53,48.26V83.53A4.28,4.28,0,0,1,76.47,88H19.53a4.28,4.28,0,0,1-4.06-4.47V48.26"/><path class="cls-1" d="M27.67,36.12c0,6.17-4.56,11.17-10.17,11.17h0c-5.61,0-10.17-5-10.17-11.17V25L18.13,8H77.87l10.8,17V36.12c0,6.17-4.56,11.17-10.17,11.17h0c-5.61,0-10.17-5-10.17-11.17"/><path class="cls-1" d="M48,36.12c0,6.17-4.55,11.17-10.17,11.17h0c-5.61,0-10.16-5-10.16-11.17"/><path class="cls-1" d="M68.33,36.12c0,6.17-4.55,11.17-10.16,11.17h0c-5.62,0-10.17-5-10.17-11.17"/><line class="cls-1" x1="7.4" y1="25.65" x2="88.29" y2="25.65"/><line class="cls-1" x1="64.73" y1="61.78" x2="64.73" y2="88"/><line class="cls-1" x1="50.51" y1="61.78" x2="50.51" y2="88"/></svg>