<svg xmlns="http://www.w3.org/2000/svg" xmlns:xlink="http://www.w3.org/1999/xlink" viewBox="0 0 96 96"><defs><style>.cls-1{isolation:isolate;}.cls-2{opacity:0.2;}.cls-3{fill:url(#linear-gradient);}.cls-4{fill:url(#linear-gradient-2);}.cls-5{fill:#77340e;}.cls-6{fill:#e98200;}.cls-7{fill:#ffd066;opacity:0.6;}.cls-8{fill:url(#linear-gradient-3);}.cls-9{fill:#ac5e16;}.cls-10{fill:#cc9a58;}.cls-11{fill:#bf8755;}.cls-12{fill:#e0b16c;}.cls-13{fill:#d6a667;}.cls-14{fill:#eab978;}.cls-15{fill:#ffde9c;}.cls-16{fill:#bf8443;}.cls-17{fill:#aa7133;}.cls-18,.cls-23{fill:#ce9d5b;}.cls-19{fill:#eabb71;}.cls-20{fill:#ba823e;}.cls-21{fill:#a36a31;}.cls-22{fill:#996128;}.cls-23{stroke:#eabb71;}.cls-23,.cls-34{stroke-miterlimit:10;}.cls-24,.cls-26{fill:#cc9348;}.cls-24{opacity:0.39;}.cls-25{fill:#c68d4f;}.cls-27{fill:#6a6d7a;}.cls-28{fill:#454459;}.cls-29{fill:#686a79;}.cls-30{fill:#363951;}.cls-31{fill:url(#linear-gradient-4);}.cls-32{fill:#4d4958;}.cls-33{fill:#665446;opacity:0.3;mix-blend-mode:multiply;}.cls-34{fill:none;stroke:#000;stroke-width:2px;}</style><linearGradient id="linear-gradient" x1="62.18" y1="39.77" x2="72.18" y2="39.77" gradientUnits="userSpaceOnUse"><stop offset="0" stop-color="#b76718"/><stop offset="1" stop-color="#77340e"/></linearGradient><linearGradient id="linear-gradient-2" x1="-303.25" y1="-107.46" x2="310.06" y2="187.46" xlink:href="#linear-gradient"/><linearGradient id="linear-gradient-3" x1="47.02" y1="67.8" x2="60.08" y2="67.8" xlink:href="#linear-gradient"/><linearGradient id="linear-gradient-4" x1="44.83" y1="33.38" x2="71.42" y2="33.38" xlink:href="#linear-gradient"/></defs><title>ic_land</title><g class="cls-1"><g id="Layer_1" data-name="Layer 1"><polygon class="cls-2" points="5.49 82.08 67.69 71.28 92.31 78.3 51.49 94.5 5.49 82.08"/><polygon class="cls-3" points="62.45 41.41 62.18 37.16 70.53 37.03 72.18 37.98 70.53 42.51 62.45 41.41"/><polygon class="cls-4" points="81.63 53.42 82.82 43.74 81.08 43 81.08 42.91 48.21 40.18 6.02 42.91 16.43 80.72 49.3 89.67 78.33 77.98 79.44 77.61 80.99 66.29 79.3 65.69 80.9 63.92 81.72 54.7 80.22 53.96 81.63 53.42"/><polygon class="cls-5" points="6.02 42.91 47.48 52.05 81.08 42.91 48.21 40.18 6.02 42.91"/><polygon class="cls-6" points="14.41 80.89 49.4 89.39 46.75 81.45 48.12 79.53 13.73 69.32 11.36 71.42 14.41 80.89"/><polygon class="cls-6" points="10.49 68.17 47.57 79.17 44.92 69.58 45.65 65.47 10.03 56.2 7.52 58.33 10.49 68.17"/><polygon class="cls-6" points="6.94 55.86 47.09 67.07 46.15 65.79 44.65 55.93 47.59 52.92 6.43 42.5 3.69 44.87 6.94 55.86"/><polygon class="cls-5" points="9.31 56.61 46.2 66.11 53.23 63.46 45.29 68.3 8.85 57.34 9.31 56.61"/><polygon class="cls-5" points="13.05 69.94 12.96 68.85 47.39 78.8 79.53 65.74 80.81 66.66 47.48 80.17 13.05 69.94"/><polygon class="cls-7" points="3.69 44.87 44.65 55.93 47.59 52.92 6.43 42.5 3.69 44.87"/><polygon class="cls-7" points="45.29 68.3 7.67 58.99 8.85 57.34 45.29 68.3"/><polygon class="cls-7" points="11.36 71.42 47.48 80.17 13.05 69.94 11.36 71.42"/><polygon class="cls-5" points="81.72 54.7 45.38 68.03 51.59 64.1 80.22 53.96 81.72 54.7"/><polygon class="cls-8" points="47.02 48.85 51.13 88.94 52.87 89.58 60.08 85.83 57.16 47.03 55.33 46.02 47.02 48.85"/><polygon class="cls-6" points="50.22 49.58 48.03 56.52 47.02 48.85 55.33 46.02 57.16 47.12 50.22 49.58"/><polygon class="cls-5" points="50.22 49.58 52.87 89.58 60.08 85.83 57.16 47.12 50.22 49.58"/><polygon class="cls-5" points="76.42 40.59 73.41 80.03 75.33 80.44 80.94 77.57 85.05 40.45 78.89 39.35 76.42 40.59"/><polygon class="cls-6" points="76.42 40.59 78.48 44.7 78.89 39.35 76.42 40.59"/><ellipse class="cls-9" cx="54.1" cy="53.87" rx="0.96" ry="1.58"/><ellipse class="cls-9" cx="55.74" cy="83.6" rx="0.96" ry="1.58"/><ellipse class="cls-9" cx="82.04" cy="44.29" rx="0.96" ry="1.58"/><ellipse class="cls-9" cx="78.2" cy="74.97" rx="0.96" ry="1.58"/><path class="cls-9" d="M9.11,50.83c-.35-.79-1-1.28-1.4-1.08s-.47,1-.11,1.78,1,1.28,1.4,1.09S9.47,51.63,9.11,50.83Z"/><path class="cls-9" d="M13.22,64.39c-.35-.79-1-1.28-1.4-1.08s-.47,1-.11,1.78,1,1.28,1.4,1.09S13.58,65.19,13.22,64.39Z"/><path class="cls-9" d="M16.92,77.36c-.36-.8-1-1.28-1.41-1.09s-.47,1-.11,1.79,1,1.27,1.4,1.08S17.27,78.15,16.92,77.36Z"/><path class="cls-9" d="M45.27,85c-.36-.8-1-1.28-1.4-1.09s-.48,1-.12,1.79,1,1.27,1.41,1.08S45.63,85.82,45.27,85Z"/><path class="cls-9" d="M43.21,72.56c-.35-.79-1-1.28-1.4-1.08s-.47,1-.11,1.78,1,1.28,1.4,1.09S43.57,73.35,43.21,72.56Z"/><path class="cls-9" d="M42.32,59.35c-.36-.79-1-1.28-1.4-1.08s-.48,1-.12,1.78,1,1.28,1.41,1.09S42.68,60.14,42.32,59.35Z"/><path class="cls-10" d="M57.92,20.64h.41a.58.58,0,0,0,0-.14C58.17,20.74,58,20.59,57.92,20.64Z"/><path class="cls-10" d="M65.61,43.2c-.83-.94-.59-1.05-.27-2.43.16-.72.4-1.47.56-2.2A15.82,15.82,0,0,1,67.53,34c-.67-.29-2.22-.32-2.74-.84s-.47-1.78-.55-2.4a12.43,12.43,0,0,1,.26-6c-1.86-1.24-4.57-2.28-6-4.17h-.14c.4,1.68-.71,3.83-1.34,5.38-1,2.47-3.29,5.74-3.48,8.41a27.83,27.83,0,0,0,.39,4.08,31.37,31.37,0,0,0,.82,5.75C55.49,46.75,66.17,43.84,65.61,43.2Z"/><path class="cls-11" d="M62.72,45.58a18.33,18.33,0,0,1,.54-3.92c.25-1,.77-2.36.4-3.41s-2-2-2.49-3.24a16.8,16.8,0,0,1-.58-12.09c0-.12.09-.23.13-.34a8.83,8.83,0,0,1-2.25-1.94h-.14c.4,1.68-.71,3.83-1.34,5.38-1,2.47-3.29,5.74-3.48,8.41a27.83,27.83,0,0,0,.39,4.08,31.37,31.37,0,0,0,.82,5.75c.29.94.62,1.9,1,2.86C56.24,48.68,62.7,47.48,62.72,45.58Z"/><path class="cls-12" d="M59,36.61A7.26,7.26,0,0,1,57.64,32c.09-2.1.15-4.21.26-6.29.09-1.73.77-3.69.68-5.34-1.76.26-3.6.77-5.37,1.2-1.17.28-2.38.36-3.52.67-.83.23-.93.4-1.15,1.4-.49,2.23-.77,4.44-1.18,6.69-.6,3.25-1.45,6.45-2,9.72a32.2,32.2,0,0,1-.8,3.51c-.63,2.22,15.35.71,16-2.18A4.39,4.39,0,0,0,60.72,39,14.27,14.27,0,0,0,59,36.61Z"/><path class="cls-13" d="M46,41.71c.19-1.48.54-3,.78-4.69.69-4.73,1.2-9.49,2-14.21a3.73,3.73,0,0,0-.26.86c-.49,2.23-.77,4.44-1.18,6.69-.6,3.25-1.45,6.45-2,9.72S45.7,44.17,46,41.71Z"/><path class="cls-14" d="M59,36.61A7.26,7.26,0,0,1,57.64,32c.09-2.1.15-4.21.26-6.29.09-1.73.77-3.69.68-5.34-1.76.26-3.6.77-5.37,1.2-1.17.28-2.38.36-3.52.67-.79.22-.92.4-1.12,1.27.8-.19,6.83-1.32,7.69-1.37,3.24-.2.15,8.47.46,11.76.39,4.1,2.16,3.26,2.21,7.5a39.65,39.65,0,0,1-.29,5.12c-.28,2.33,1.1.62,1.26-1a40.63,40.63,0,0,1,.6-4.17A4.39,4.39,0,0,0,60.72,39,14.27,14.27,0,0,0,59,36.61Z"/><path class="cls-10" d="M48.06,19.4c-.13-4.3-3.31-4.5-5.6-5.84s-4.73-1.34-6.85,2.36c-1.55,2.69-2.28,8.9-3.36,12.37C31,32.2,29.58,35.43,28.06,39.12c1.3,1.61,4,1.88,5.7,2.82s3.27,2.91,5.15,2.11,4-3,5.7-4.87c1.14-1.25,3.88-3.52,4.32-5.46,0-2.52-.62-4.78-.79-7.25S48.13,21.73,48.06,19.4Z"/><path class="cls-12" d="M42.46,13.56c-2.1-1.22-4.39-1.29-6.41,1.69-.12,5.54-.73,11.17-1.32,16.84,1.17.21,2.34.4,3.51.64,2.94.61,3.86-2.25,6-5.67a50.12,50.12,0,0,1,3.81-5.28c0-.79,0-1.58,0-2.38C47.93,15.1,44.75,14.9,42.46,13.56Z"/><path class="cls-15" d="M47.94,18.27s-3.41,3.34-8.6,11.29c-.59.9-3.65-2.41-3.65-2.41,0-.88.81-12.49.81-12.49-.15.18-.3.38-.45.59-.12,5.54-.73,11.17-1.32,16.84,1.17.21,2.34.4,3.51.64,2.94.61,3.86-2.25,6-5.67a50.12,50.12,0,0,1,3.81-5.28c0-.79,0-1.58,0-2.38A7.53,7.53,0,0,0,47.94,18.27Z"/><path class="cls-16" d="M37.93,29.61a5.52,5.52,0,0,0-2.86-1.36c-1.5,1.6-3,3.6-4.61,5-.76,1.92-1.57,3.81-2.4,5.84,1.3,1.61,4,1.88,5.7,2.82s3.27,2.91,5.15,2.11a7.46,7.46,0,0,0,1-.58c-.11-4.19.14-8.26.1-12.38A5.5,5.5,0,0,1,37.93,29.61Z"/><path class="cls-17" d="M37.93,29.61a5.52,5.52,0,0,0-2.86-1.36c-.17.18-.35.38-.52.58a5.76,5.76,0,0,1,2.64,3.07c.23.6.43,1.2.61,1.81A11.59,11.59,0,0,1,38.51,37a19.77,19.77,0,0,1,.23,3c0,1.34-.08,2.71-.2,4.08a2.26,2.26,0,0,0,.37-.11,7.46,7.46,0,0,0,1-.58c-.11-4.19.14-8.26.1-12.38A5.5,5.5,0,0,1,37.93,29.61Z"/><path class="cls-18" d="M48.06,19.4a6.16,6.16,0,0,0-.13-1.12,15.88,15.88,0,0,1-2.51,3.14c-.83,1.2-1.66,2.43-2.5,3.64-1,1.43-2.09,2.72-3.14,4.05-.66,1-.81,1.14-.44.45-.17.29-.32.61-.47.92a120.72,120.72,0,0,1,.05,13.57c1.91-.82,4-3,5.69-4.87,1.14-1.25,3.88-3.52,4.32-5.46,0-2.52-.62-4.78-.79-7.25S48.13,21.73,48.06,19.4Z"/><path class="cls-19" d="M11.05,41.29a9.13,9.13,0,0,1-1.88,2.32l17.1,3.77C25,44,23.74,40.27,19.68,40.12,15.08,40,11.51,40.21,11.05,41.29Z"/><path class="cls-15" d="M10.93,41.53a11.35,11.35,0,0,1-1.77,2.08l17.11,3.77c-.81-2.13-1.61-4.4-3.11-5.83-1.57.56-4.35,1.39-5.91,1.88C16.26,43.75,12.21,42.77,10.93,41.53Z"/><path class="cls-12" d="M18.47,45.66c-.46-.53-.92-1.06-1.37-1.6A7.51,7.51,0,0,1,15.85,44a7.14,7.14,0,0,1-4.92-2.49,11.05,11.05,0,0,1-1.77,2.09Z"/><path class="cls-20" d="M22.34,42.1l.21-.26-.64,0a36.55,36.55,0,0,1-5.43,2.42h-.07a8.87,8.87,0,0,0,.53,1l4.29,1A5.72,5.72,0,0,1,22.34,42.1Z"/><path class="cls-18" d="M32.64,47.1c1.72-1,4.55-1.76,5.86-3.13a56,56,0,0,1-4.8-6.38c-1.27-2.1-2.27-6.12-4-7.59-2.36-2-4.94-1.48-7.25-.1S16.8,32.11,16.83,35c0,1.57.25,3.12.18,4.77s-.68,3.36-.55,5a1.71,1.71,0,0,0,.28.42l14,3.08C31.38,47.94,32,47.48,32.64,47.1Z"/><path class="cls-12" d="M22.46,29.9c-2.34,1.39-5.66,2.21-5.63,5.14,0,.53,0,1.06.07,1.6a31.38,31.38,0,0,1,4.18,2.73c2.4,1.83,3.48,3.55,6.53,2.51,1.21-.42,2.43-.8,3.64-1.19a88.87,88.87,0,0,1-2-11C27,28.07,24.61,28.61,22.46,29.9Z"/><path class="cls-15" d="M28.74,29.34s1.32,7.63,1.32,8.23c0,0-3.08,2.9-3.73,2.42a49.55,49.55,0,0,0-9.42-5.74,3.25,3.25,0,0,0-.08.79c0,.53,0,1.06.07,1.6a31.38,31.38,0,0,1,4.18,2.73c2.4,1.83,3.48,3.55,6.53,2.51,1.21-.42,2.43-.8,3.64-1.19a88.87,88.87,0,0,1-2-11Q29,29.48,28.74,29.34Z"/><path class="cls-21" d="M32.64,47.1c1.72-1,4.55-1.76,5.86-3.13-1-1.18-1.87-2.28-2.74-3.41-1.72-.62-3.38-1.63-5-2.39a9,9,0,0,0-2.93,1.54,7.82,7.82,0,0,1-2.13,1.45c.09,2.08.34,4.11.48,6.19l4.6,1C31.38,47.94,32,47.48,32.64,47.1Z"/><path class="cls-22" d="M27.36,46.93a10.41,10.41,0,0,1,.12-2.1,6.71,6.71,0,0,1,.62-2.39q.25-.67.57-1.35a6.28,6.28,0,0,1,2.65-2.63l-.58-.29a9,9,0,0,0-2.93,1.54,7.82,7.82,0,0,1-2.13,1.45c.09,2.08.34,4.11.48,6.19l1.26.28Z"/><path class="cls-18" d="M26.86,40.5a4.23,4.23,0,0,0-.53-.51c.41.38.26.31-.47-.21-1.15-.68-2.34-1.3-3.45-2.06-.92-.62-1.83-1.27-2.75-1.9a11.08,11.08,0,0,1-2.74-1.57,3.24,3.24,0,0,0-.09.79c0,1.57.25,3.12.18,4.77s-.68,3.36-.55,5a1.71,1.71,0,0,0,.28.42L27,47.54C26.83,45.3,26.88,43,26.86,40.5Z"/><path class="cls-23" d="M61.43,46.46c-2.81-6.18-5-14-12.82-13.9-8.07,0-14.31.75-15,2.67-1.28,3.4-8.86,8.49-7.41,11.91,0,.08.08.16.13.24L47.35,52,47,48.85,55.33,46l1.83,1,.17,2.34,1.3-.35C60.18,48.18,61.37,47.32,61.43,46.46Z"/><path class="cls-15" d="M61.43,46.46c-1.87-4.11-3.46-8.9-6.61-11.65-2.7,1.1-7.53,2.75-10.21,3.73-1.73.63-8.9-.8-11.23-2.88-1.71,3.4-8.6,8.21-7.21,11.48,0,.08.08.16.13.24L47.35,52,47,48.85,55.33,46l1.83,1,.17,2.34,1.3-.35C60.18,48.18,61.37,47.32,61.43,46.46Z"/><path class="cls-12" d="M44.38,39.65a14.67,14.67,0,0,1-2.2,0c-3.3-.29-6.75-1.45-8.8-4-1.69,3.4-8.61,8.21-7.21,11.49,0,.08.08.16.13.24L47.35,52,47,48.85l4.46-1.52C49.17,44.7,46.73,42.22,44.38,39.65Z"/><path class="cls-24" d="M30.87,39.48c.11-.14.19-.24.29-.35l.55-.89c.25-.4.51-.79.8-1.17l1-1.29-.12-.13c-1.69,3.4-8.61,8.21-7.21,11.49,0,.08.08.16.13.24l3.75.83A7.7,7.7,0,0,1,30.87,39.48Z"/><path class="cls-25" d="M52.57,48.6Z"/><path class="cls-25" d="M46.26,41.66c-.44-.46-1.5-2-2.11-2,.08.1,4.4,4.56,6.1,8.1l1.23-.42c-1-1.11-2-2.19-3-3.26Z"/><path class="cls-10" d="M44.38,39.65q-.68,0-1.35,0c-.07,4,.6,7.49-2,11L47.35,52,47,48.85l4.46-1.52C49.17,44.7,46.73,42.22,44.38,39.65Z"/><path class="cls-26" d="M61.43,46.46c-1.94-4.26-3.57-9.26-7-12l-1.39.73a67.91,67.91,0,0,1-9.77,4.87l-.12,0c1.18,2.49,3.43,4.7,5,6.94l.77,1.12L55.33,46l1.83,1,.17,2.34,1.3-.35C60.18,48.18,61.37,47.32,61.43,46.46Z"/><path class="cls-20" d="M52.51,45.62a10,10,0,0,1,.91-9.78,8.1,8.1,0,0,1,1.11-1.28l-.06-.05-1.39.73a67.91,67.91,0,0,1-9.77,4.87l-.12,0c1.18,2.49,3.43,4.7,5,6.94l.77,1.12,4.15-1.41A12.57,12.57,0,0,1,52.51,45.62Z"/><path class="cls-19" d="M70.28,35.63c-5.83-.67-10.39-.71-11.08.61-1.22,2.35-7.14,5.37-6.38,7.95.47,1.66,24.35-1.59,23.53-3.5C75.23,38.09,73.55,36,70.28,35.63Z"/><path class="cls-15" d="M66.87,39.6c-1.3.3-6.35-1.36-7.86-3.06a10.39,10.39,0,0,1-1.71,1.82c-2.13,1.89,6.79,4.74,6.79,4.74,1.3.46,12.89-1.27,11.78-3.38a9.25,9.25,0,0,0-1.3-1.92C72.53,38.36,68.89,39.13,66.87,39.6Z"/><polygon class="cls-5" points="23.72 27.46 19.58 27.82 28.82 47.94 34.72 49.24 23.72 27.46"/><path class="cls-27" d="M8.25,31A3.29,3.29,0,0,0,13.83,32c5.38-6.22,8-8.31,13.29-8.81a3.57,3.57,0,0,0,2.91-2,3.71,3.71,0,0,0-.24-3.58C23.71,8.25,15-.92,8.78,2.08S4.12,19.57,8.25,31Z"/><path class="cls-28" d="M8.06,2.5C2.57,6.27,4.28,20,8.25,31A3.29,3.29,0,0,0,13.83,32c5.38-6.22,8-8.31,13.29-8.81A3.54,3.54,0,0,0,29.52,22a3.93,3.93,0,0,0-.64-2C22.92,10.79,14.62,1.76,8.06,2.5Z"/><path class="cls-29" d="M10.46,4a2,2,0,0,0-2.72.35C4.48,9.5,6.22,21.09,9.66,30.54a3.25,3.25,0,0,0,2.45,2.1,3.37,3.37,0,0,0,1,0,3.54,3.54,0,0,0,.73-.62c2.82-3.27,4.86-5.37,7-6.7-.88-2.94-2-5.79-2.83-7.95,0,0-4.82-10.31-5.29-11.17A7.29,7.29,0,0,0,10.46,4Z"/><path class="cls-28" d="M18.08,28.3c2.28,5,8.8,3.53,7-1-2.11-5.22-6.85-10.94-8.55-10.2S16,23.74,18.08,28.3Z"/><path class="cls-29" d="M22.6,26.36c.92,1.72,1.73,2.81,2,4.28a2.74,2.74,0,0,0,.32-3.12c-2-4.95-6.51-10.44-8.07-9.77a1.14,1.14,0,0,0-.57.8C17.35,20.35,20.74,22.91,22.6,26.36Z"/><path class="cls-30" d="M15.38,17.67a11.25,11.25,0,0,0-.49,12.51l2.2-2.1S13.59,21.55,15.38,17.67Z"/><path class="cls-12" d="M70.54,45.78c-1.28-1.83-2.63-3.59-3.93-5.4A10.75,10.75,0,0,1,65,40.2c-2.36-.5-4.75-1.64-6-3.67-1.52,2.31-6.93,5.18-6.2,7.66a6.74,6.74,0,0,0,1.55,2.16l1-.33,1.83,1,.15,2.08.24.2Z"/><polygon class="cls-31" points="71.42 16.14 71.4 16.08 67.43 14.74 44.83 51.46 47.35 52.02 47.02 48.85 53.64 46.6 71.42 16.14"/><polygon class="cls-5" points="71.42 16.14 71.42 16.13 63.57 27.04 50.12 47.8 53.64 46.6 71.42 16.14"/><path class="cls-29" d="M34.72,12.07C45.33,6.31,58.34,7.5,67.2,11.73A36.25,36.25,0,0,1,87.92,38.52L90,40.17,91.26,39c.67-12.14-8.38-27.2-23.33-34.31C58.09.05,42.69,2.41,31.66,9.42l.08,1.6Z"/><path class="cls-30" d="M31.74,11l2.13.75c11-7,26.43-9.38,36.26-4.7A43.11,43.11,0,0,1,82,15.38a43.67,43.67,0,0,0-14-10.66C58.09.05,42.69,2.41,31.66,9.42Z"/><polygon class="cls-32" points="62.77 18.53 69.25 22.56 73.69 14.26 68.03 11.06 62.77 18.53"/><path class="cls-32" d="M85.83,25.32A43.43,43.43,0,0,0,68.07,9.68c-7.42-3.53-17.24-3.56-26.35-.36A38.44,38.44,0,0,1,67.2,11.73c12,5.71,18.73,15,21.08,26.56l1.55,1.46A30.09,30.09,0,0,0,85.83,25.32Z"/><path class="cls-29" d="M67.51,16.69c-1.69,2.79-.92,3.61,0,4.18s1.69.68,3.39-2.11,2.31-5.52,1.37-6.09S69.21,13.9,67.51,16.69Z"/><path class="cls-33" d="M74.62,16.2c8.69,6.58,12.21,16.18,13.3,22.32L90,40.17h0C88.63,33.3,87.83,25.32,74.62,16.2Z"/><path class="cls-26" d="M76.41,40.83a10.34,10.34,0,0,0-2.06-3.28L73.28,38a49.77,49.77,0,0,1-7.49,2.66l-.08,0c.63,1.89,2.06,3.69,3,5.44l.1.18,7.35-2Z"/><path class="cls-20" d="M73.47,38.42a5.89,5.89,0,0,1,.91-.83l0,0L73.28,38a49.77,49.77,0,0,1-7.49,2.66l-.08,0c.63,1.89,2.06,3.69,3,5.44l.1.18L72,45.4A7.29,7.29,0,0,1,73.47,38.42Z"/><path class="cls-25" d="M67.79,42c-.28-.37-.9-1.61-1.35-1.64A32.76,32.76,0,0,1,69.84,46l.69-.19c-.43-.62-.88-1.24-1.33-1.85S68.26,42.64,67.79,42Z"/><path class="cls-10" d="M70.54,45.78c-1.28-1.83-2.63-3.59-3.93-5.4l-1-.09c-.38,2.76-.23,5.2-2,7.38Z"/><path class="cls-34" d="M91.29,38.3c0-.11,0-.21,0-.32v-.25a2.72,2.72,0,0,0,0-.28v-.27a2,2,0,0,0,0-.25c0-.1,0-.2,0-.3s0-.12,0-.18c0-.61-.09-1.22-.16-1.84v0C90,26.07,84.78,16.83,76.51,10.14l0,0c-.55-.45-1.12-.88-1.7-1.31l-.09-.06c-.56-.41-1.13-.81-1.72-1.19l-.15-.1-.88-.56h0c-.29-.18-.57-.35-.86-.51l-.2-.12L70,5.77l0,0-.88-.46-.23-.11-.91-.46C58.09.05,42.69,2.41,31.66,9.42l.08,1.6,3,1.05a31.55,31.55,0,0,1,7.21-2.82l-.21.07a38.51,38.51,0,0,1,23.44,1.52h0l.64.26,0,0,.61.27.12,0,.6.28.27.13-4.7,6.67,1.69,1L62.1,23.41c-.47-.26-.94-.53-1.38-.82h0a11,11,0,0,1-1.47-1.1l-.07-.06L59,21.24l-.15-.15L58.73,21a1.15,1.15,0,0,1-.14-.17c0-.13,0-.25,0-.38-1.76.26-3.6.77-5.37,1.2-1.17.28-2.38.36-3.52.67l-.14,0-.1,0h0a1.15,1.15,0,0,0-.48.28,1.52,1.52,0,0,0-.14.18,2,2,0,0,0-.13.35l-.1.38,0,.13c-.14.65-.27,1.3-.38,1.95a2,2,0,0,0,0,.24s0-.11,0-.18c-.06-1.57,0-3.12,0-4.66v-.63c0-.06,0-.13,0-.2,0-.26,0-.52,0-.79,0-.12,0-.25,0-.37V19c0-.09,0-.17,0-.26a.59.59,0,0,1,0-.13s0-.08,0-.13c-.55-3.39-3.4-3.65-5.51-4.89l-.2-.11c-2.2-1.2-4.59-1.12-6.65,2.47-1.55,2.69-2.28,8.9-3.36,12.37-.38,1.23-.79,2.38-1.21,3.51A6.19,6.19,0,0,0,29.71,30a5.06,5.06,0,0,0-4.35-1.25A3.93,3.93,0,0,0,25,27.3a25.39,25.39,0,0,0-1.59-3.23l.48-.14A9.9,9.9,0,0,1,25,23.54a18,18,0,0,1,2.11-.32l.21,0h.06l.15,0,.07,0,.17,0h0L28,23l.07,0L28.2,23h.11l.22-.15.1-.05.05,0,.13-.09.05,0,.16-.12h0l.16-.13,0,0,.12-.11,0,0a1.07,1.07,0,0,0,.14-.16h0s0,0,0,0l0,0c.05-.05.09-.11.14-.17l0-.06a1.63,1.63,0,0,1,.11-.17l0-.06c.05-.08.09-.16.13-.24a3.71,3.71,0,0,0-.24-3.58c-.08-.12-.17-.24-.25-.37C23.48,8,14.94-.88,8.78,2.08c-5.31,2.54-5,13-2.35,23.06h0c.05.18.1.36.14.53v0c0,.17.09.34.14.51v0c0,.16.1.33.14.49l0,.06c.05.16.09.32.14.48l0,.07c0,.15.1.31.14.46l0,.08c0,.15.09.3.14.45l0,.1c.05.14.09.29.14.43l0,.11c0,.14.09.28.14.42s0,.09,0,.13l.13.4A.87.87,0,0,0,8,30.1l.12.35.18.52A3.29,3.29,0,0,0,13.83,32c1.41-1.63,2.63-3,3.76-4.09l.15-.12v0l.08-.07h0c.08.19.17.39.26.58a5.41,5.41,0,0,0,2.38,2.64c-1.63.82-3.18,1.69-3.55,3.31h0a3.25,3.25,0,0,0-.08.79c0,.16,0,.32,0,.48,0,.92.1,3.64.14,4.57a11.71,11.71,0,0,0-3.65.13,7.48,7.48,0,0,0-1.62.51,1.22,1.22,0,0,0-.66.56,2.56,2.56,0,0,1-.11.24h0a6.54,6.54,0,0,1-.85,1.13l-2.43.16L6.43,42.5,3.69,44.87l3.25,11,2.42.67.14,0-.07.08-.12,0L9.05,57,7.52,58.33l.18.61,0,.06,2.77,9.17,2.48.74.08,1-1.69,1.5,3.05,9.47,24.7,6L49.3,89.67l1.83-.74h0l1.74.64,7.21-3.75,0-.49L73.42,80V80l1.92.41,5.61-2.87,4.11-37.12-6.16-1.1-2.47,1.32s-.76-1.43-1.24-2.12h0c-.17-.23-.34-.46-.53-.67v0l-.29-.31h0a6.54,6.54,0,0,0-4.07-1.92c-1.19-.14-2.33-.25-3.39-.32a9.82,9.82,0,0,1,.64-1.3c-.67-.29-2.22-.32-2.74-.84s-.47-1.78-.55-2.4-.16-1.32-.2-2l4.06-6.94,1.15.72,3.93-7.34A35.79,35.79,0,0,1,84.41,28.09a39,39,0,0,1,3.44,10c0,.13.05.26.07.39L90,40.17,91.26,39l0-.52Z"/></g></g></svg>