<svg id="Layer_1" data-name="Layer 1" xmlns="http://www.w3.org/2000/svg" viewBox="0 0 96 96"><defs><style>.cls-1{fill:#ff592b;}</style></defs><title>ic_refresh</title><path class="cls-1" d="M90.83,45.3A4,4,0,0,0,88,44.13h0a4,4,0,0,0-4,4A36,36,0,0,1,31.27,79.88c-.52-.27-1-.57-1.59-.9l4.6-4.22a2.5,2.5,0,0,0-1.15-4.28l-18.77-4.2a2.51,2.51,0,0,0-3,2.77l2.58,19.08a2.46,2.46,0,0,0,1.62,2,2.51,2.51,0,0,0,2.54-.5l5.5-5a42.5,42.5,0,0,0,4,2.37A44,44,0,0,0,92,48.13,4,4,0,0,0,90.83,45.3Z"/><path class="cls-1" d="M16.13,31.28a36,36,0,0,1,48.6-15.13c.52.27,1,.56,1.59.9l-4.6,4.22a2.5,2.5,0,0,0,1.15,4.28l18.77,4.2a2.51,2.51,0,0,0,3-2.78L82.09,7.9a2.49,2.49,0,0,0-4.16-1.51l-5.49,5q-1.95-1.29-4-2.37a44,44,0,0,0-59.4,18.5A44.2,44.2,0,0,0,4,47.89a4,4,0,0,0,1.17,2.84A4,4,0,0,0,12,47.91,36.1,36.1,0,0,1,16.13,31.28Z"/></svg>
