<svg id="Layer_1" data-name="Layer 1" xmlns="http://www.w3.org/2000/svg" viewBox="0 0 96 96"><defs><style>.cls-1{fill:#fff;}.cls-2{fill:#e5e5e5;}</style></defs><title>ic_stats_total_nfts</title><path class="cls-1" d="M48.47,47,75.56,31.39a.93.93,0,0,0,0-1.62L48.47,14.12a1,1,0,0,0-.94,0L20.44,29.77a.93.93,0,0,0,0,1.62L47.53,47A.93.93,0,0,0,48.47,47Z"/><path class="cls-1" d="M17.64,36.14V65.9a.93.93,0,0,0,.46.81L44.37,81.87a.92.92,0,0,0,1.39-.81l-.07-29.81a.92.92,0,0,0-.47-.8L19,35.33A.93.93,0,0,0,17.64,36.14Z"/><path class="cls-2" d="M50.35,51.23,50.43,81a.93.93,0,0,0,1.4.8L77.9,66.71a.93.93,0,0,0,.46-.81V36.14a.93.93,0,0,0-1.4-.81L50.82,50.42A.94.94,0,0,0,50.35,51.23Z"/></svg>