<svg id="Layer_1" data-name="Layer 1" xmlns="http://www.w3.org/2000/svg" viewBox="0 0 96 96"><defs><style>.cls-1{fill:#fff;}</style></defs><title>ic_stats_volume</title><path class="cls-1" d="M31.07,88a7.5,7.5,0,0,1-7.5-7.5c0-5,4.5-6,7.5-7.5,1-.5,2-1.76,2-5,0-1.58-.07-4.52-.15-7.92-.24-10.61-.6-26.64.18-35.25.69-7.64,5.82-13.34,14.06-15.66A34,34,0,0,1,57.54,8a7.5,7.5,0,0,1-.93,15,18.8,18.8,0,0,0-5.63.67c-2.8.85-2.88,1.81-2.95,2.52-.7,7.75-.34,23.9-.12,33.55.09,3.64.15,6.51.15,8.26,0,3.91-.3,8.44-2.54,12.38C43.55,83.86,39.45,88,31.07,88Z"/><path class="cls-1" d="M62.59,33.23l-6.36,6.36a1,1,0,0,0-.29.71v1.76a1,1,0,0,0,.29.71l6.36,6.37a1.05,1.05,0,0,0,.71.29h1.76a1,1,0,0,0,.71-.29l6.37-6.37a1,1,0,0,0,.29-.71V40.3a1,1,0,0,0-.29-.71l-6.37-6.36a1,1,0,0,0-.71-.3H63.3A1,1,0,0,0,62.59,33.23Z"/></svg>