<svg xmlns="http://www.w3.org/2000/svg" xmlns:xlink="http://www.w3.org/1999/xlink" viewBox="0 0 96 96"><defs><style>.cls-1{isolation:isolate;}.cls-2{opacity:0.2;}.cls-3{fill:url(#linear-gradient);}.cls-4{fill:url(#linear-gradient-2);}.cls-5{fill:url(#radial-gradient);}.cls-15,.cls-16,.cls-6,.cls-7{stroke:#231f20;stroke-miterlimit:10;}.cls-15,.cls-6,.cls-7{stroke-width:0.5px;opacity:0.5;}.cls-10,.cls-11,.cls-12,.cls-13,.cls-14,.cls-6,.cls-7,.cls-9{fill-rule:evenodd;}.cls-11,.cls-13,.cls-15,.cls-6,.cls-9{mix-blend-mode:screen;}.cls-6{fill:url(#radial-gradient-2);}.cls-7{fill:url(#radial-gradient-3);}.cls-8{fill:#aacccb;}.cls-11,.cls-13,.cls-9{fill:#bdc8c9;}.cls-9{opacity:0.25;}.cls-10{fill:url(#radial-gradient-4);}.cls-11{opacity:0.35;}.cls-12{fill:url(#radial-gradient-5);}.cls-13{opacity:0.3;}.cls-14{fill:url(#radial-gradient-6);}.cls-15{fill:url(#radial-gradient-7);}.cls-16{fill:none;stroke-width:2px;}</style><linearGradient id="linear-gradient" x1="90.66" y1="-11.19" x2="40.32" y2="49.13" gradientUnits="userSpaceOnUse"><stop offset="0" stop-color="#545e7a"/><stop offset="1" stop-color="#8e9dba"/></linearGradient><linearGradient id="linear-gradient-2" x1="24.92" y1="68.62" x2="86.25" y2="68.62" gradientUnits="userSpaceOnUse"><stop offset="0" stop-color="#46435e"/><stop offset="1" stop-color="#4a4d61"/></linearGradient><radialGradient id="radial-gradient" cx="23.92" cy="47.03" r="25.88" gradientUnits="userSpaceOnUse"><stop offset="0" stop-color="#6b6f8c"/><stop offset="1" stop-color="#46435e"/></radialGradient><radialGradient id="radial-gradient-2" cx="53.78" cy="43.25" r="21.5" gradientUnits="userSpaceOnUse"><stop offset="0" stop-color="#e2f1f7"/><stop offset="1" stop-color="#9a9db5"/></radialGradient><radialGradient id="radial-gradient-3" cx="85.79" cy="54.48" r="0.19" xlink:href="#radial-gradient-2"/><radialGradient id="radial-gradient-4" cx="81.06" cy="52.6" r="6.82" gradientUnits="userSpaceOnUse"><stop offset="0" stop-color="#8c9ab8"/><stop offset="1" stop-color="#586280"/></radialGradient><radialGradient id="radial-gradient-5" cx="44.57" cy="29.53" r="9.46" gradientUnits="userSpaceOnUse"><stop offset="0" stop-color="#9eaecf"/><stop offset="1" stop-color="#647091"/></radialGradient><radialGradient id="radial-gradient-6" cx="40.4" cy="26.49" r="20.63" xlink:href="#radial-gradient-5"/><radialGradient id="radial-gradient-7" cx="67.39" cy="14.2" r="7.56" xlink:href="#radial-gradient-2"/></defs><title>ic_tool_material</title><g class="cls-1"><g id="Layer_1" data-name="Layer 1"><polygon class="cls-2" points="46.69 79 10.05 79 25.41 92 76.86 86.8 46.69 79"/><polygon class="cls-3" points="22.08 10.95 74.58 9.12 86.25 54.12 30.08 58.83 22.08 10.95"/><polygon class="cls-4" points="24.92 83.12 30.08 58.83 86.25 54.12 73.75 79.12 24.92 83.12"/><polygon class="cls-5" points="22.08 10.95 17.75 39.12 24.92 83.12 30.08 58.83 22.08 10.95"/><path class="cls-6" d="M80.47,31.29l-1.72.09c-.48,0-1.42.27-1.82.27A28.34,28.34,0,0,1,73,30l-1.08-1.08-.24.06c.39.44.75.88,1,1.25,1,.35,1.92.74,2.87,1.16a2.28,2.28,0,0,1,.82.49c0,.07-.2.28-.71.55A154.75,154.75,0,0,0,50,48.88c-.42.12-.49,0-1-.43a36.52,36.52,0,0,0-11-6.28c-.71-.27-.66-.41-.74-.8A26.43,26.43,0,0,0,36,37.1h0c.43,1.45.78,2.92,1,4.19.08.36.14.5-.32.39-.79-.18-3.16-1-5.72-1.54-1.37-.3-2.78-.53-3.94-.73l0,.21c1.27.17,2.6.37,3.86.65,5.94,1.3,13.2,4.34,17.75,8.29.6.52.63.69.59,1.32a52.43,52.43,0,0,1-4.48,6.75c-.07.27-.15.63-.25,1l.37,0c.08-.31.17-.64.26-1,1.39-2,2.73-4,4-6a5.14,5.14,0,0,1,1.51-1.85c4.88-3.84,18.13-12.86,24.73-16,2.2-1.05,2.71-.92,5.09-1.1h.09Z"/><path class="cls-7" d="M85.76,54.5h0Z"/><path class="cls-8" d="M30.55,59.37l55.7-5.25-55.69,4.1L22.08,11,29.5,58.82l-4.58,24.3Zm-.47-.54Z"/><path class="cls-9" d="M78.32,46.73c-.92.18-1.9,1.74-2.12,2.66s.2,1.48.66,1.3c1-.4,3.88-1.57,4.07-2.8a1.06,1.06,0,0,0-.88-1.3,4.84,4.84,0,0,0-1.73.14Z"/><path class="cls-10" d="M78.17,46.56c-.92.18-1.9,1.75-2.12,2.67s.2,1.47.66,1.29c1-.4,3.88-1.56,4.08-2.8a1.08,1.08,0,0,0-.88-1.3,4.87,4.87,0,0,0-1.74.14Z"/><path class="cls-11" d="M43.18,22.55a1.58,1.58,0,0,0-1.32.5,6.44,6.44,0,0,0-1.3,2.71c-.23,1,1.53,2,2.37,2A2.25,2.25,0,0,0,44.8,27c.64-.86-.29-4.32-1.62-4.46Z"/><path class="cls-12" d="M42.89,22.23a1.55,1.55,0,0,0-1.32.5,6.34,6.34,0,0,0-1.3,2.7c-.23,1,1.53,2,2.38,2a2.26,2.26,0,0,0,1.86-.77c.64-.87-.29-4.33-1.62-4.46Z"/><path class="cls-13" d="M33.63,13.07A8.22,8.22,0,0,0,29.81,15c-1.22,1.19-2.78,4.94-1.88,6.59a3.45,3.45,0,0,0,2.59,1.77A7.12,7.12,0,0,0,35.14,22c1.24-.94,1.88-2.3,2.83-3.51a22.48,22.48,0,0,0,1.84-2.43,2.27,2.27,0,0,0-1.6-3.18,9.72,9.72,0,0,0-4.58.17Z"/><path class="cls-14" d="M33.34,12.75a8.2,8.2,0,0,0-3.82,1.92c-1.21,1.19-2.78,5-1.88,6.59A3.43,3.43,0,0,0,30.23,23a7.17,7.17,0,0,0,4.62-1.35c1.24-.94,1.88-2.29,2.83-3.51a21.54,21.54,0,0,0,1.84-2.43c.84-1.47-.54-3-1.6-3.18a9.72,9.72,0,0,0-4.58.18Z"/><path class="cls-15" d="M60.25,13.71c-.88.61-1.67,1.19-2.55,1.89,1.71-1,3-2.62,5.31-1.88a35.4,35.4,0,0,1,5.77,2.9c2.66.82,5.44,1.49,8.29,2.09L77,18.49a79,79,0,0,1-8-2.4A30.45,30.45,0,0,1,62.28,13c-1.36-1-2.62-2.26-3.94-3.3L58,9.7c.92.74,1.85,1.51,2.84,2.38S61.25,13,60.25,13.71Z"/><polygon class="cls-16" points="74.58 9.12 22.08 10.95 17.75 39.12 24 83 73.75 79.12 86.25 54.12 74.58 9.12"/></g></g></svg>